<svg xmlns="http://www.w3.org/2000/svg" width="322.857" height="109.506" viewBox="0 0 322.857 109.506">
  <g id="그룹_1167" data-name="그룹 1167" transform="translate(-798.572 -156)">
    <g id="그룹_1165" data-name="그룹 1165" transform="translate(508.375 215)">
      <path id="패스_2122" data-name="패스 2122" d="M299.1.019h13.28L305.8,37.207h18.6q5.31,0,6.242-5.313l2.323-13.281q.93-5.313-4.383-5.313H315.3L317.689.019h18.594q6.638,0,9.363,3.32t1.526,9.961L342.99,37.207q-1.2,6.64-4.948,9.828t-10.659,3.453H290.2Z" fill="#0072c6"/>
      <path id="패스_2123" data-name="패스 2123" d="M371.977,18.612q4.875,0,6.681,2.532t1.055,6.845l-3.938,22.5H366.4l1.969-11.252H355.24l-.328,1.875h11.251l-1.64,9.377H353.271q-4.877,0-6.728-2.345t-1.008-7.032L346,38.49a10.305,10.305,0,0,1,3.328-6.282q2.673-2.344,7.549-2.344h13.127l.328-1.875h-22.5l1.641-9.377Z" fill="#0072c6"/>
      <path id="패스_2124" data-name="패스 2124" d="M385.292,20.957a11.231,11.231,0,0,1,7.361-2.344h22.5l-1.641,9.376h-22.5l-.328,1.876h13.127q4.688,0,6.681,2.438t1.055,6.938l-.375,1.876a12.03,12.03,0,0,1-3.47,7.126q-2.672,2.438-7.548,2.25h-22.5l1.641-9.376h22.5l.375-1.876H389.043q-4.689,0-6.634-2.344t-1.1-7.032l.328-1.876a11.1,11.1,0,0,1,3.657-7.032" fill="#0072c6"/>
      <path id="패스_2125" data-name="패스 2125" d="M426.362,18.612l-1.969,11.252H437.52q4.736-.186,6.728,2.25t1.008,7.127l-1.969,11.252H433.91l1.313-7.5q.656-3.75-3.094-3.75h-9.377l-1.969,11.252h-9.377l5.579-31.881Z" fill="#0072c6"/>
      <path id="패스_2126" data-name="패스 2126" d="M462.589,13.345l-1.912,10.926h15.3q5.681,0,7.785,2.95t1.229,7.976l-.765,4.37q-.984,5.463-4.179,8.194t-8.659,2.732H458.273l1.912-10.926h11.363q3.606-1.967.765-4.37H458.765l-2.677,15.3H445.162l6.5-37.148Z" fill="#0072c6"/>
      <path id="패스_2127" data-name="패스 2127" d="M491.536,20.956a10.7,10.7,0,0,1,7.338-2.344H512q4.688.188,6.587,2.719t1.149,6.658l-2.3,13.127q-.984,5.439-3.657,7.314a13.617,13.617,0,0,1-7.36,2.063H493.294q-4.689,0-6.54-2.345t-1.2-7.032l2.3-13.127a12.735,12.735,0,0,1,3.68-7.033m12.776,20.16a4.405,4.405,0,0,0,4.407-3.751l.985-5.626q.468-3.75-3.1-3.75h-5.626q-3.564,0-4.407,3.75l-.984,5.626q-.47,3.751,3.094,3.751Z" fill="#0072c6"/>
      <path id="패스_2128" data-name="패스 2128" d="M545.757,18.612q4.875,0,6.681,2.532t1.055,6.845l-3.938,22.5h-9.377l1.969-11.252H529.02l-.328,1.875h11.252L538.3,50.493H527.051q-4.877,0-6.728-2.345t-1.008-7.032l.469-2.626a10.305,10.305,0,0,1,3.328-6.282q2.673-2.344,7.549-2.344h13.127l.328-1.875h-22.5l1.641-9.377Z" fill="#0072c6"/>
      <path id="패스_2129" data-name="패스 2129" d="M559.025,21.05a10.516,10.516,0,0,1,7.361-2.438h16.878l-1.641,9.377H568.495q-3.8.188-4.407,3.75l-3.281,18.754H551.43l3.938-22.5a12.784,12.784,0,0,1,3.657-6.939" fill="#0072c6"/>
      <path id="패스_2130" data-name="패스 2130" d="M606.546,50.493h-9.377l2.3-13.127H587.84q-3.189,2.064-.657,3.75h9.752l-1.641,9.377H584.042q-4.689,0-6.634-2.344t-1.1-7.033l.657-3.75a11.853,11.853,0,0,1,3.446-6.845q2.694-2.532,7.571-2.532h13.128L603.669,13.3h9.385Z" fill="#0072c6"/>
    </g>
    <g id="그룹_1166" data-name="그룹 1166" transform="translate(0 1)">
      <path id="패스_2131" data-name="패스 2131" d="M11.787,3.32A15.78,15.78,0,0,1,22.18,0H59.367L57.043,13.281H22.512q-5.514,2.656-.93,5.312h21.25q6.639,0,9.5,3.454t1.461,9.828l-1,5.312q-1.131,6.64-4.914,10.094T37.187,50.468H0L2.324,37.187H36.855q5.778-2.391,1-5.312H16.6q-6.641,0-9.4-3.321T5.644,18.593l.93-5.312q1.2-6.639,5.213-9.961" transform="translate(839.946 155)" fill="#0072c6"/>
      <path id="패스_2132" data-name="패스 2132" d="M60.719,21.031a10.51,10.51,0,0,1,7.359-2.438H84.953q4.875,0,6.7,2.438t1.032,6.937l-3.938,22.5H79.375l3.281-18.749q.657-3.75-3.093-3.751l-3.938,22.5H66.25l3.938-22.5q-3.845.563-4.407,3.751L62.5,50.468H53.125l3.938-22.5a12.784,12.784,0,0,1,3.656-6.937" transform="translate(839.946 155)" fill="#0072c6"/>
      <path id="패스_2133" data-name="패스 2133" d="M118.7,18.594q4.875,0,6.68,2.531t1.054,6.844l-3.937,22.5h-9.375l1.969-11.25H101.969l-.328,1.875h11.25l-1.641,9.375H100q-4.876,0-6.727-2.344t-1.007-7.031l.468-2.625a10.307,10.307,0,0,1,3.328-6.281q2.673-2.344,7.547-2.344h13.125l.328-1.875h-22.5L96.2,18.594Z" transform="translate(839.946 155)" fill="#0072c6"/>
      <path id="패스_2134" data-name="패스 2134" d="M131.969,21.031a10.51,10.51,0,0,1,7.359-2.438H156.2l-1.64,9.375H141.438q-3.8.188-4.407,3.751L133.75,50.468h-9.375l3.938-22.5a12.784,12.784,0,0,1,3.656-6.937" transform="translate(839.946 155)" fill="#0072c6"/>
      <path id="패스_2135" data-name="패스 2135" d="M186.2,18.594,186,19.766l-.205,1.172-.205,1.172-.205,1.171-.205,1.172-.2,1.172-.206,1.172-.205,1.172h-11.25l-.205,1.172-.205,1.172-.2,1.172-.205,1.172-.205,1.171L172.082,35l-.205,1.172-.205,1.172a6.3,6.3,0,0,0-.1.879,4.123,4.123,0,0,0,.043.762,2.728,2.728,0,0,0,.18.644,2.139,2.139,0,0,0,.318.528,2.1,2.1,0,0,0,.455.41,2.651,2.651,0,0,0,.594.293,3.858,3.858,0,0,0,.731.175,6,6,0,0,0,.868.059h7.5l-.205,1.172-.205,1.172-.205,1.172-.2,1.171-.205,1.172-.205,1.172L180.83,49.3l-.205,1.172h-11.25q-.609,0-1.172-.037c-.375-.024-.734-.061-1.077-.109s-.671-.11-.982-.183a8.918,8.918,0,0,1-.888-.257,6.971,6.971,0,0,1-.794-.329,5.906,5.906,0,0,1-.7-.4,5.2,5.2,0,0,1-.6-.476,4.816,4.816,0,0,1-.51-.55,5.258,5.258,0,0,1-.421-.622,5.589,5.589,0,0,1-.336-.7,6.594,6.594,0,0,1-.253-.769,7.643,7.643,0,0,1-.168-.842,9.083,9.083,0,0,1-.083-.916q-.021-.475,0-.989t.085-1.062q.063-.549.169-1.135l.287-1.641.287-1.64.287-1.641.287-1.64.287-1.641.287-1.641.287-1.64.287-1.641h-7.5l.205-1.172.206-1.172.2-1.172.205-1.172.205-1.171.205-1.172.205-1.172.205-1.172H165.5l.96-5.3h9.484l-.94,5.3h11.2Z" transform="translate(839.946 155)" fill="#0072c6"/>
      <path id="패스_2136" data-name="패스 2136" d="M221.984,37.344l.82-4.687.821-4.688.82-4.688.82-4.687a7.7,7.7,0,0,0,.1-2.424,3.365,3.365,0,0,0-.7-1.693,3.092,3.092,0,0,0-1.495-.963,6.565,6.565,0,0,0-2.291-.232H207.6a7.343,7.343,0,0,0-2.283.332,5.247,5.247,0,0,0-1.8,1,5.738,5.738,0,0,0-1.32,1.66,9.045,9.045,0,0,0-.838,2.324l-.581,3.32-.581,3.321-.581,3.32-.581,3.32a7.146,7.146,0,0,0-.075,2.325,3.384,3.384,0,0,0,.7,1.66,3.3,3.3,0,0,0,1.486,1,6.833,6.833,0,0,0,2.267.332H216.7l18.28,19.547L223.4,67.235,211.062,50.469H195.781a26.1,26.1,0,0,1-3.287-.191,15.13,15.13,0,0,1-2.69-.573,8.85,8.85,0,0,1-2.091-.954,5.938,5.938,0,0,1-1.495-1.337,6.73,6.73,0,0,1-.983-1.784,10.531,10.531,0,0,1-.561-2.3,17.866,17.866,0,0,1-.137-2.815,29.561,29.561,0,0,1,.287-3.328l1.046-5.977,1.046-5.976,1.046-5.977,1.045-5.976a22.333,22.333,0,0,1,.739-3,17.175,17.175,0,0,1,1.087-2.615,14.151,14.151,0,0,1,1.436-2.232,12.88,12.88,0,0,1,1.785-1.852,13.154,13.154,0,0,1,2.133-1.469,15.006,15.006,0,0,1,2.482-1.087A18.776,18.776,0,0,1,201.5.324,24.817,24.817,0,0,1,204.679,0h23.907a18.938,18.938,0,0,1,2.957.216,12.468,12.468,0,0,1,2.5.648,8.911,8.911,0,0,1,2.036,1.079,7.6,7.6,0,0,1,1.575,1.51,8.712,8.712,0,0,1,1.123,1.91,10.65,10.65,0,0,1,.678,2.274,14.909,14.909,0,0,1,.235,2.64,21.753,21.753,0,0,1-.21,3l-1.627,9.3-1.627,9.3-1.627,9.3-1.45,7.9" transform="translate(839.946 155)" fill="#0072c6"/>
    </g>
  </g>
</svg>
