<svg
    xmlns="http://www.w3.org/2000/svg"
    viewBox="0 0 199 200"
    id="vector">
    <path
        id="path"
        d="M 15 0 L 184 0 C 187.977 0 191.795 1.581 194.607 4.393 C 197.419 7.205 199 11.023 199 15 L 199 185 C 199 188.977 197.419 192.795 194.607 195.607 C 191.795 198.419 187.977 200 184 200 L 15 200 C 11.023 200 7.205 198.419 4.393 195.607 C 1.581 192.795 0 188.977 0 185 L 0 15 C 0 11.023 1.581 7.205 4.393 4.393 C 7.205 1.581 11.023 0 15 0 Z"
        fill="#0072c6"/>
    <path
        id="path_1"
        d="M 23.312 50.341 C 25.398 48.715 27.997 47.884 30.639 48 L 56.86 48 L 55.221 57.364 L 30.872 57.364 Q 26.985 59.237 30.217 61.109 L 45.2 61.109 Q 49.881 61.109 51.9 63.544 Q 53.919 65.979 52.93 70.474 L 52.23 74.219 C 51.912 76.914 50.691 79.424 48.765 81.336 Q 46.097 83.771 41.227 83.583 L 15 83.583 L 16.639 74.219 L 40.986 74.219 Q 45.06 72.533 41.686 70.474 L 26.705 70.474 Q 22.023 70.474 20.08 68.132 Q 18.137 65.79 18.98 61.109 L 19.636 57.364 C 19.976 54.657 21.281 52.162 23.312 50.341 Z"
        fill="#ffffff"/>
    <path
        id="path_2"
        d="M 57.811 62.829 C 59.258 61.616 61.115 61.001 63 61.11 L 74.9 61.11 Q 78.337 61.11 79.626 62.829 Q 80.915 64.548 80.353 67.72 L 77.576 83.585 L 70.966 83.585 L 73.28 70.365 Q 73.742 67.721 71.098 67.721 L 68.321 83.586 L 61.711 83.586 L 64.488 67.721 Q 61.777 68.121 61.381 70.365 L 59.067 83.585 L 52.457 83.585 L 55.234 67.72 C 55.559 65.86 56.461 64.149 57.811 62.829 Z"
        fill="#ffffff"/>
    <path
        id="path_3"
        d="M 98.696 61.11 Q 102.133 61.11 103.405 62.895 C 103.847 63.608 104.141 64.403 104.269 65.232 C 104.397 66.061 104.356 66.907 104.149 67.72 L 101.372 83.585 L 94.762 83.585 L 96.15 75.653 L 86.896 75.653 L 86.665 76.975 L 94.597 76.975 L 93.44 83.585 L 85.508 83.585 Q 82.071 83.585 80.766 81.933 Q 79.461 80.281 80.055 76.975 L 80.386 75.124 C 80.618 73.416 81.45 71.846 82.733 70.695 C 84.243 69.509 86.138 68.92 88.054 69.042 L 97.308 69.042 L 97.539 67.72 L 81.675 67.72 L 82.832 61.11 Z"
        fill="#ffffff"/>
    <path
        id="path_4"
        d="M 108.049 62.829 C 109.496 61.616 111.353 61.001 113.238 61.11 L 125.133 61.11 L 123.976 67.72 L 114.722 67.72 C 113.964 67.677 113.217 67.927 112.639 68.419 C 112.06 68.912 111.693 69.609 111.615 70.364 L 109.301 83.584 L 102.691 83.584 L 105.468 67.719 C 105.795 65.859 106.698 64.148 108.049 62.829 Z"
        fill="#ffffff"/>
    <path
        id="path_5"
        d="M 146.29 61.113 L 146.145 61.939 L 146 62.765 L 145.855 63.591 L 145.71 64.417 L 145.565 65.243 L 145.42 66.069 L 145.275 66.895 L 145.13 67.721 L 137.198 67.721 L 137.053 68.547 L 136.908 69.373 L 136.763 70.199 L 136.618 71.025 L 136.473 71.851 L 136.328 72.677 L 136.183 73.503 L 136.038 74.329 C 136.001 74.534 135.979 74.741 135.971 74.949 C 135.964 75.129 135.974 75.308 136.001 75.486 C 136.025 75.642 136.067 75.795 136.128 75.941 C 136.184 76.075 136.26 76.201 136.352 76.313 C 136.445 76.425 136.553 76.522 136.674 76.602 C 136.804 76.688 136.945 76.758 137.092 76.809 C 137.259 76.867 137.432 76.908 137.607 76.933 C 137.81 76.961 138.015 76.975 138.22 76.974 L 143.508 76.974 L 143.363 77.8 L 143.218 78.626 L 143.073 79.452 L 142.928 80.278 L 142.783 81.104 L 142.638 81.93 L 142.493 82.756 L 142.348 83.582 L 134.416 83.582 Q 133.987 83.582 133.59 83.557 C 133.326 83.539 133.072 83.514 132.831 83.479 C 132.59 83.444 132.358 83.401 132.138 83.35 C 131.926 83.301 131.717 83.24 131.512 83.169 C 131.321 83.103 131.134 83.025 130.953 82.936 C 130.782 82.853 130.618 82.758 130.46 82.652 C 130.309 82.551 130.167 82.439 130.033 82.316 C 129.903 82.197 129.783 82.067 129.673 81.929 C 129.562 81.79 129.462 81.643 129.373 81.49 C 129.283 81.332 129.203 81.168 129.135 80.999 C 129.064 80.822 129.005 80.641 128.957 80.457 C 128.907 80.261 128.867 80.063 128.839 79.863 Q 128.795 79.553 128.78 79.217 C 128.77 78.993 128.77 78.761 128.78 78.517 C 128.79 78.273 128.81 78.026 128.839 77.768 C 128.868 77.51 128.909 77.243 128.958 76.968 L 129.158 75.812 L 129.358 74.655 L 129.558 73.499 L 129.758 72.342 L 129.958 71.185 L 130.158 70.029 L 130.358 68.872 L 130.558 67.715 L 125.27 67.715 L 125.415 66.889 L 125.56 66.063 L 125.705 65.237 L 125.85 64.411 L 125.995 63.585 L 126.14 62.759 L 126.285 61.933 L 126.43 61.107 L 131.665 61.107 L 132.342 57.373 L 139.029 57.373 L 138.366 61.107 L 146.261 61.107 Z"
        fill="#ffffff"/>
    <path
        id="path_6"
        d="M 171.518 74.334 L 172.096 71.034 L 172.674 67.729 L 173.253 64.429 L 173.831 61.124 C 173.944 60.562 173.968 59.985 173.901 59.416 C 173.851 58.98 173.68 58.567 173.409 58.222 C 173.132 57.898 172.766 57.662 172.356 57.544 C 171.832 57.395 171.285 57.339 170.741 57.38 L 161.377 57.38 C 160.831 57.373 160.288 57.452 159.767 57.614 C 159.302 57.761 158.87 57.999 158.497 58.314 C 158.117 58.643 157.801 59.04 157.566 59.484 C 157.295 60.001 157.096 60.552 156.975 61.123 L 156.565 63.465 L 156.155 65.806 L 155.745 68.147 L 155.335 70.489 C 155.228 71.029 155.209 71.582 155.281 72.128 C 155.339 72.556 155.512 72.96 155.781 73.298 C 156.059 73.623 156.422 73.866 156.829 73.998 C 157.345 74.166 157.886 74.245 158.429 74.232 L 167.792 74.232 L 180.681 88.014 L 180.681 88.014 L 172.513 95.414 L 163.813 83.592 L 153.043 83.592 C 152.268 83.596 151.494 83.551 150.725 83.457 C 150.081 83.381 149.445 83.247 148.825 83.057 C 148.306 82.897 147.811 82.671 147.35 82.384 C 146.948 82.132 146.592 81.813 146.297 81.442 C 146.003 81.06 145.77 80.635 145.604 80.183 C 145.41 79.659 145.276 79.116 145.204 78.562 C 145.118 77.904 145.085 77.241 145.104 76.578 C 145.126 75.793 145.193 75.009 145.304 74.231 L 146.042 70.017 L 146.78 65.803 L 147.517 61.589 L 148.255 57.375 C 148.38 56.659 148.554 55.953 148.776 55.262 C 148.98 54.628 149.236 54.011 149.542 53.419 C 149.83 52.863 150.169 52.336 150.555 51.844 C 150.93 51.368 151.352 50.931 151.814 50.539 C 152.279 50.145 152.781 49.798 153.314 49.503 C 153.873 49.196 154.459 48.939 155.064 48.737 C 155.717 48.518 156.385 48.351 157.064 48.237 C 157.805 48.113 158.554 48.036 159.305 48.009 L 176.161 48.009 C 176.859 48.005 177.557 48.056 178.247 48.161 C 178.848 48.252 179.438 48.405 180.007 48.617 C 180.516 48.808 180.999 49.064 181.443 49.378 C 181.863 49.678 182.237 50.036 182.554 50.443 C 182.874 50.856 183.14 51.308 183.346 51.789 C 183.564 52.303 183.725 52.84 183.824 53.389 C 183.934 54.003 183.99 54.626 183.99 55.25 C 183.99 55.959 183.94 56.667 183.842 57.369 L 182.695 63.924 L 181.548 70.479 L 180.401 77.034 L 179.392 82.597"
        fill="#ffffff"/>
    <path
        id="path_7"
        d="M 132.669 55.654"
        fill="#ffffff"
        stroke="#1a1311"
        stroke-width="0.25"/>
    <path
        id="path_8"
        d="M 127.381 86.104"
        fill="#ffffff"
        stroke="#1a1311"
        stroke-width="0.25"/>
    <path
        id="path_9"
        d="M 26.239 108.549 Q 29.899 105 36.268 105 L 69.38 105 Q 76.002 105 78.454 108.549 Q 80.906 112.098 79.823 118.649 L 73.583 156.874 L 60.845 156.874 L 66.194 124.11 Q 67.084 118.65 61.994 118.65 L 56.9 118.65 L 50.66 156.875 L 37.923 156.875 L 44.163 118.65 L 39.069 118.65 Q 33.847 119.469 33.084 124.11 L 27.736 156.874 L 15 156.874 L 21.24 118.649 Q 22.577 112.099 26.239 108.549 Z"
        fill="#ffffff"/>
    <path
        id="path_10"
        d="M 87.243 108.549 Q 91.031 105 97.399 105 L 133.056 105 L 130.764 118.652 L 100.2 118.652 Q 94.851 118.652 94.214 124.112 L 124.779 124.112 L 122.556 137.764 L 91.986 137.764 Q 90.839 142.951 96.186 143.224 L 126.756 143.224 L 124.527 156.876 L 88.866 156.876 Q 82.498 156.876 79.856 153.463 Q 77.214 150.05 78.356 143.224 L 82.368 118.651 Q 83.456 112.099 87.243 108.549 Z"
        fill="#ffffff"/>
    <path
        id="path_11"
        d="M 138.375 108.413 C 141.149 106.064 144.709 104.845 148.341 105 L 184.001 105 L 181.771 118.652 L 148.659 118.652 Q 143.373 121.383 147.768 124.112 L 168.144 124.112 Q 174.512 124.112 177.25 127.662 Q 179.988 131.212 178.65 137.762 L 177.695 143.222 Q 176.611 150.048 172.983 153.598 Q 169.355 157.148 162.731 156.874 L 127.073 156.874 L 129.301 143.222 L 162.413 143.222 Q 167.953 140.764 163.368 137.762 L 142.988 137.762 Q 136.619 137.762 133.977 134.348 Q 131.335 130.934 132.477 124.109 L 133.368 118.649 Q 134.523 111.827 138.375 108.413 Z"
        fill="#ffffff"/>
</svg>
